<?xml version="1.0" encoding="UTF-8"?>
<svg xmlns="http://www.w3.org/2000/svg" width="1388" height="1384" viewBox="0 0 1388 1384">
<rect x="0" y="0" width="1388" height="1384" fill="#f8f8f8"/>
<rect x="12" y="12" width="160" height="160" fill="#ffffff" stroke="#d0d0d0"/>
<g transform="translate(12.000 12.000) scale(5.333333) translate(-0.000000 -0.000000)"><rect x="0" y="0" width="30.0000" height="30.0000" fill="#ffffff"/>
  <circle cx="15.0000" cy="15.0000" r="12.0000" fill="#f2f2f2" stroke="#7f7f7f" stroke-width="1.0000"/></g>
<text x="14" y="188" font-size="11" fill="#2d2d2d" font-family="Arial, Helvetica, sans-serif">AC0800_L</text>
<rect x="184" y="12" width="160" height="160" fill="#ffffff" stroke="#d0d0d0"/>
<g transform="translate(184.000 12.000) scale(8.000000) translate(-0.000000 -0.000000)"><rect x="0" y="0" width="20.0000" height="20.0000" fill="#ffffff"/>
  <circle cx="10.0000" cy="10.0000" r="8.5000" fill="#f2f2f2" stroke="#7f7f7f" stroke-width="1.0000"/></g>
<text x="186" y="188" font-size="11" fill="#2d2d2d" font-family="Arial, Helvetica, sans-serif">AC0800_M</text>
<rect x="356" y="12" width="160" height="160" fill="#ffffff" stroke="#d0d0d0"/>
<g transform="translate(356.000 12.000) scale(10.666667) translate(-0.000000 -0.000000)"><rect x="0" y="0" width="15.0000" height="15.0000" fill="#ffffff"/>
  <circle cx="7.5000" cy="7.5000" r="6.5000" fill="#f2f2f2" stroke="#7f7f7f" stroke-width="1.0000"/></g>
<text x="358" y="188" font-size="11" fill="#2d2d2d" font-family="Arial, Helvetica, sans-serif">AC0800_S</text>
<rect x="528" y="12" width="160" height="160" fill="#ffffff" stroke="#d0d0d0"/>
<g transform="translate(563.556 12.000) scale(3.555556) translate(-0.000000 -0.000000)"><rect x="11.5000" y="26.0000" width="2.0000" height="18.0000" fill="#7f7f7f"/>
  <circle cx="12.5000" cy="16.0000" r="11.0000" fill="#f2f2f2" stroke="#7f7f7f" stroke-width="1.0000"/></g>
<text x="530" y="188" font-size="11" fill="#2d2d2d" font-family="Arial, Helvetica, sans-serif">AC0811_L</text>
<rect x="700" y="12" width="160" height="160" fill="#ffffff" stroke="#d0d0d0"/>
<g transform="translate(734.286 12.000) scale(4.571429) translate(-0.000000 -0.000000)"><rect x="9.0000" y="20.0000" width="2.0000" height="14.0000" fill="#787878"/>
  <circle cx="10.0000" cy="12.0000" r="9.0000" fill="#f9f9f9" stroke="#787878" stroke-width="1.0000"/></g>
<text x="702" y="188" font-size="11" fill="#2d2d2d" font-family="Arial, Helvetica, sans-serif">AC0811_M</text>
<rect x="872" y="12" width="160" height="160" fill="#ffffff" stroke="#d0d0d0"/>
<g transform="translate(904.000 12.000) scale(6.400000) translate(-0.000000 -0.000000)"><rect x="7.0000" y="14.0000" width="1.0000" height="11.0000" fill="#7f7f7f"/>
  <circle cx="7.5000" cy="7.5000" r="7.0000" fill="#f2f2f2" stroke="#7f7f7f" stroke-width="1.0000"/></g>
<text x="874" y="188" font-size="11" fill="#2d2d2d" font-family="Arial, Helvetica, sans-serif">AC0811_S</text>
<rect x="1044" y="12" width="160" height="160" fill="#ffffff" stroke="#d0d0d0"/>
<g transform="translate(1044.000 47.556) scale(3.555556) translate(-0.000000 -0.000000)"><line x1="0.0000" y1="12.5000" x2="17.5000" y2="12.5000" stroke="#7f7f7f" stroke-width="1.0000" stroke-linecap="round"/>
  <circle cx="29.0000" cy="12.5000" r="11.5000" fill="#f2f2f2" stroke="#7f7f7f" stroke-width="1.0000"/></g>
<text x="1046" y="188" font-size="11" fill="#2d2d2d" font-family="Arial, Helvetica, sans-serif">AC0812_L</text>
<rect x="1216" y="12" width="160" height="160" fill="#ffffff" stroke="#d0d0d0"/>
<g transform="translate(1216.000 46.286) scale(4.571429) translate(-0.000000 -0.000000)"><line x1="0.0000" y1="10.0000" x2="14.0000" y2="10.0000" stroke="#7f7f7f" stroke-width="1.0000" stroke-linecap="round"/>
  <circle cx="23.0000" cy="10.0000" r="9.0000" fill="#f2f2f2" stroke="#7f7f7f" stroke-width="1.0000"/></g>
<text x="1218" y="188" font-size="11" fill="#2d2d2d" font-family="Arial, Helvetica, sans-serif">AC0812_M</text>
<rect x="12" y="208" width="160" height="160" fill="#ffffff" stroke="#d0d0d0"/>
<g transform="translate(12.000 240.000) scale(6.400000) translate(-0.000000 -0.000000)"><line x1="0.0000" y1="7.5000" x2="10.5000" y2="7.5000" stroke="#7f7f7f" stroke-width="1.0000" stroke-linecap="round"/>
  <circle cx="17.0000" cy="7.5000" r="6.5000" fill="#f2f2f2" stroke="#7f7f7f" stroke-width="1.0000"/></g>
<text x="14" y="384" font-size="11" fill="#2d2d2d" font-family="Arial, Helvetica, sans-serif">AC0812_S</text>
<rect x="184" y="208" width="160" height="160" fill="#ffffff" stroke="#d0d0d0"/>
<g transform="translate(219.556 208.000) scale(3.555556) translate(-0.000000 -0.000000)"><line x1="12.5000" y1="0.0000" x2="12.5000" y2="17.5000" stroke="#7f7f7f" stroke-width="1.0000" stroke-linecap="round"/>
  <circle cx="12.5000" cy="29.0000" r="11.5000" fill="#f2f2f2" stroke="#7f7f7f" stroke-width="1.0000"/></g>
<text x="186" y="384" font-size="11" fill="#2d2d2d" font-family="Arial, Helvetica, sans-serif">AC0813_L</text>
<rect x="356" y="208" width="160" height="160" fill="#ffffff" stroke="#d0d0d0"/>
<g transform="translate(390.286 208.000) scale(4.571429) translate(-0.000000 -0.000000)"><line x1="9.5000" y1="0.0000" x2="9.5000" y2="14.5000" stroke="#7f7f7f" stroke-width="1.0000" stroke-linecap="round"/>
  <circle cx="9.5000" cy="23.0000" r="9.0000" fill="#f2f2f2" stroke="#7f7f7f" stroke-width="1.0000"/></g>
<text x="358" y="384" font-size="11" fill="#2d2d2d" font-family="Arial, Helvetica, sans-serif">AC0813_M</text>
<rect x="528" y="208" width="160" height="160" fill="#ffffff" stroke="#d0d0d0"/>
<g transform="translate(560.000 208.000) scale(6.400000) translate(-0.000000 -0.000000)"><line x1="7.5000" y1="0.0000" x2="7.5000" y2="10.5000" stroke="#7f7f7f" stroke-width="1.0000" stroke-linecap="round"/>
  <circle cx="7.5000" cy="17.0000" r="6.5000" fill="#f2f2f2" stroke="#7f7f7f" stroke-width="1.0000"/></g>
<text x="530" y="384" font-size="11" fill="#2d2d2d" font-family="Arial, Helvetica, sans-serif">AC0813_S</text>
<rect x="700" y="208" width="160" height="160" fill="#ffffff" stroke="#d0d0d0"/>
<g transform="translate(700.000 243.556) scale(3.555556) translate(-0.000000 -0.000000)"><line x1="27.5000" y1="12.5000" x2="44.0000" y2="12.5000" stroke="#7f7f7f" stroke-width="1.0000" stroke-linecap="round"/>
  <circle cx="16.0000" cy="12.5000" r="11.5000" fill="#f2f2f2" stroke="#7f7f7f" stroke-width="1.0000"/></g>
<text x="702" y="384" font-size="11" fill="#2d2d2d" font-family="Arial, Helvetica, sans-serif">AC0814_L</text>
<rect x="872" y="208" width="160" height="160" fill="#ffffff" stroke="#d0d0d0"/>
<g transform="translate(872.000 242.286) scale(4.571429) translate(-0.000000 -0.000000)"><line x1="21.0000" y1="10.0000" x2="35.0000" y2="10.0000" stroke="#787878" stroke-width="1.0000" stroke-linecap="round"/>
  <circle cx="12.0000" cy="10.0000" r="9.0000" fill="#f9f9f9" stroke="#787878" stroke-width="1.0000"/></g>
<text x="874" y="384" font-size="11" fill="#2d2d2d" font-family="Arial, Helvetica, sans-serif">AC0814_M</text>
<rect x="1044" y="208" width="160" height="160" fill="#ffffff" stroke="#d0d0d0"/>
<g transform="translate(1044.000 240.000) scale(6.400000) translate(-0.000000 -0.000000)"><line x1="23.5000" y1="7.5000" x2="14.5000" y2="7.5000" stroke="#7f7f7f" stroke-width="1.0000" stroke-linecap="round"/>
  <circle cx="8.0000" cy="7.5000" r="6.5000" fill="#f2f2f2" stroke="#7f7f7f" stroke-width="1.0000"/></g>
<text x="1046" y="384" font-size="11" fill="#2d2d2d" font-family="Arial, Helvetica, sans-serif">AC0814_S</text>
<rect x="1216" y="208" width="160" height="160" fill="#ffffff" stroke="#d0d0d0"/>
<g transform="translate(1216.000 208.000) scale(5.333333) translate(-0.000000 -0.000000)"><circle cx="15.0000" cy="15.0000" r="13.5000" fill="#f2f2f2" stroke="#7f7f7f" stroke-width="1.0000"/>
  <text x="14.7312" y="17.1250" fill="#7f7f7f" font-family="Arial, Helvetica, sans-serif" font-size="13.0000px" font-style="normal" font-weight="600" text-anchor="middle" dominant-baseline="middle" transform="translate(14.7312 17.1250) scale(0.8900 1) translate(-14.7312 -17.1250)">CO</text>
  <text x="22.8276" y="15.0450" fill="#7f7f7f" font-family="Arial, Helvetica, sans-serif" font-size="7.8333px" font-style="normal" font-weight="600" text-anchor="start" dominant-baseline="middle" transform="translate(22.8276 15.0450) scale(0.8900 1) translate(-22.8276 -15.0450)">2</text></g>
<text x="1218" y="384" font-size="11" fill="#2d2d2d" font-family="Arial, Helvetica, sans-serif">AC0820_L</text>
<rect x="12" y="404" width="160" height="160" fill="#ffffff" stroke="#d0d0d0"/>
<g transform="translate(12.000 404.000) scale(8.000000) translate(-0.000000 -0.000000)"><circle cx="9.5000" cy="10.0000" r="9.0000" fill="#f2f2f2" stroke="#7f7f7f" stroke-width="1.0000"/>
  <text x="9.4348" y="11.0625" fill="#7f7f7f" font-family="Arial, Helvetica, sans-serif" font-size="8.5000px" font-style="normal" font-weight="600" text-anchor="middle" dominant-baseline="middle" transform="translate(9.4348 11.0625) scale(0.9200 1) translate(-9.4348 -11.0625)">CO</text>
  <text x="14.8612" y="9.7025" fill="#7f7f7f" font-family="Arial, Helvetica, sans-serif" font-size="4.0126px" font-style="normal" font-weight="600" text-anchor="start" dominant-baseline="middle" transform="translate(14.8612 9.7025) scale(0.9200 1) translate(-14.8612 -9.7025)">2</text></g>
<text x="14" y="580" font-size="11" fill="#2d2d2d" font-family="Arial, Helvetica, sans-serif">AC0820_M</text>
<rect x="184" y="404" width="160" height="160" fill="#ffffff" stroke="#d0d0d0"/>
<g transform="translate(184.000 404.000) scale(10.666667) translate(-0.000000 -0.000000)"><circle cx="7.0000" cy="7.5000" r="6.5000" fill="#f2f2f2" stroke="#7f7f7f" stroke-width="1.0000"/>
  <text x="6.4880" y="8.2500" fill="#7f7f7f" font-family="Arial, Helvetica, sans-serif" font-size="6.0000px" font-style="normal" font-weight="600" text-anchor="middle" dominant-baseline="middle" transform="translate(6.4880 8.2500) scale(0.9200 1) translate(-6.4880 -8.2500)">CO</text>
  <text x="9.8684" y="7.2900" fill="#7f7f7f" font-family="Arial, Helvetica, sans-serif" font-size="4.0000px" font-style="normal" font-weight="600" text-anchor="start" dominant-baseline="middle" transform="translate(9.8684 7.2900) scale(0.9200 1) translate(-9.8684 -7.2900)">2</text></g>
<text x="186" y="580" font-size="11" fill="#2d2d2d" font-family="Arial, Helvetica, sans-serif">AC0820_S</text>
<rect x="356" y="404" width="160" height="160" fill="#ffffff" stroke="#d0d0d0"/>
<g transform="translate(391.556 404.000) scale(3.555556) translate(-0.000000 -0.000000)"><line x1="12.5000" y1="44.0000" x2="12.5000" y2="28.0000" stroke="#7f7f7f" stroke-width="1.0000" stroke-linecap="round"/>
  <circle cx="12.5000" cy="16.5000" r="11.5000" fill="#f2f2f2" stroke="#7f7f7f" stroke-width="1.0000"/></g>
<text x="358" y="580" font-size="11" fill="#2d2d2d" font-family="Arial, Helvetica, sans-serif">AC0831_L</text>
<rect x="528" y="404" width="160" height="160" fill="#ffffff" stroke="#d0d0d0"/>
<g transform="translate(562.286 404.000) scale(4.571429) translate(-0.000000 -0.000000)"><rect x="9.0000" y="19.5000" width="2.0000" height="15.5000" fill="#7f7f7f"/>
  <circle cx="10.0000" cy="12.0000" r="9.0000" fill="#f2f2f2" stroke="#7f7f7f" stroke-width="1.0000"/></g>
<text x="530" y="580" font-size="11" fill="#2d2d2d" font-family="Arial, Helvetica, sans-serif">AC0831_M</text>
<rect x="700" y="404" width="160" height="160" fill="#ffffff" stroke="#d0d0d0"/>
<g transform="translate(732.000 404.000) scale(6.400000) translate(-0.000000 -0.000000)"><line x1="7.5000" y1="23.5000" x2="7.5000" y2="14.0000" stroke="#7f7f7f" stroke-width="1.0000" stroke-linecap="round"/>
  <circle cx="7.5000" cy="7.5000" r="6.5000" fill="#f2f2f2" stroke="#7f7f7f" stroke-width="1.0000"/></g>
<text x="702" y="580" font-size="11" fill="#2d2d2d" font-family="Arial, Helvetica, sans-serif">AC0831_S</text>
<rect x="872" y="404" width="160" height="160" fill="#ffffff" stroke="#d0d0d0"/>
<g transform="translate(872.000 439.556) scale(3.555556) translate(-0.000000 -0.000000)"><line x1="0.0000" y1="12.5000" x2="18.0000" y2="12.5000" stroke="#7f7f7f" stroke-width="1.0000" stroke-linecap="round"/>
  <circle cx="29.0000" cy="12.5000" r="11.0000" fill="#f2f2f2" stroke="#7f7f7f" stroke-width="1.0000"/>
  <text x="29.0374" y="13.0894" fill="#7f7f7f" font-family="Arial, Helvetica, sans-serif" font-size="10.5000px" font-style="normal" font-weight="600" text-anchor="middle" dominant-baseline="middle" transform="translate(29.0374 13.0894) scale(1.0000 1) translate(-29.0374 -13.0894)">CO</text>
  <text x="35.8624" y="11.9344" fill="#7f7f7f" font-family="Arial, Helvetica, sans-serif" font-size="4.4961px" font-style="normal" font-weight="600" text-anchor="start" dominant-baseline="middle" transform="translate(35.8624 11.9344) scale(1.0000 1) translate(-35.8624 -11.9344)">2</text></g>
<text x="874" y="580" font-size="11" fill="#2d2d2d" font-family="Arial, Helvetica, sans-serif">AC0832_L</text>
<rect x="1044" y="404" width="160" height="160" fill="#ffffff" stroke="#d0d0d0"/>
<g transform="translate(1044.000 438.286) scale(4.571429) translate(-0.000000 -0.000000)"><line x1="0.0000" y1="10.5000" x2="14.0000" y2="10.5000" stroke="#7f7f7f" stroke-width="1.0000" stroke-linecap="round"/>
  <circle cx="23.0000" cy="10.5000" r="9.0000" fill="#f2f2f2" stroke="#7f7f7f" stroke-width="1.0000"/></g>
<text x="1046" y="580" font-size="11" fill="#2d2d2d" font-family="Arial, Helvetica, sans-serif">AC0832_M</text>
<rect x="1216" y="404" width="160" height="160" fill="#ffffff" stroke="#d0d0d0"/>
<g transform="translate(1216.000 436.000) scale(6.400000) translate(-0.000000 -0.000000)"><line x1="0.0000" y1="8.0000" x2="11.0000" y2="8.0000" stroke="#7f7f7f" stroke-width="1.0000" stroke-linecap="round"/>
  <circle cx="17.5000" cy="8.0000" r="6.5000" fill="#f2f2f2" stroke="#7f7f7f" stroke-width="1.0000"/>
  <text x="16.2700" y="8.5887" fill="#7f7f7f" font-family="Arial, Helvetica, sans-serif" font-size="6.0000px" font-style="normal" font-weight="600" text-anchor="middle" dominant-baseline="middle" transform="translate(16.2700 8.5887) scale(1.0000 1) translate(-16.2700 -8.5887)">CO</text>
  <text x="20.1700" y="7.9287" fill="#7f7f7f" font-family="Arial, Helvetica, sans-serif" font-size="4.0000px" font-style="normal" font-weight="600" text-anchor="start" dominant-baseline="middle" transform="translate(20.1700 7.9287) scale(1.0000 1) translate(-20.1700 -7.9287)">2</text></g>
<text x="1218" y="580" font-size="11" fill="#2d2d2d" font-family="Arial, Helvetica, sans-serif">AC0832_S</text>
<rect x="12" y="600" width="160" height="160" fill="#ffffff" stroke="#d0d0d0"/>
<g transform="translate(47.556 600.000) scale(3.555556) translate(-0.000000 -0.000000)"><line x1="12.5000" y1="0.0000" x2="12.5000" y2="17.0000" stroke="#7f7f7f" stroke-width="1.0000" stroke-linecap="round"/>
  <circle cx="12.5000" cy="28.0000" r="11.0000" fill="#f2f2f2" stroke="#7f7f7f" stroke-width="1.0000"/>
  <text x="12.1708" y="29.0894" fill="#7f7f7f" font-family="Arial, Helvetica, sans-serif" font-size="10.5000px" font-style="normal" font-weight="600" text-anchor="middle" dominant-baseline="middle" transform="translate(12.1708 29.0894) scale(1.0000 1) translate(-12.1708 -29.0894)">CO</text>
  <text x="19.4158" y="27.4094" fill="#7f7f7f" font-family="Arial, Helvetica, sans-serif" font-size="4.4100px" font-style="normal" font-weight="600" text-anchor="start" dominant-baseline="middle" transform="translate(19.4158 27.4094) scale(1.0000 1) translate(-19.4158 -27.4094)">2</text></g>
<text x="14" y="776" font-size="11" fill="#2d2d2d" font-family="Arial, Helvetica, sans-serif">AC0833_L</text>
<rect x="184" y="600" width="160" height="160" fill="#ffffff" stroke="#d0d0d0"/>
<g transform="translate(218.286 600.000) scale(4.571429) translate(-0.000000 -0.000000)"><line x1="10.0000" y1="14.5000" x2="10.0000" y2="2.0000" stroke="#7f7f7f" stroke-width="1.0000" stroke-linecap="round"/>
  <circle cx="10.0000" cy="23.5000" r="9.0000" fill="#f2f2f2" stroke="#7f7f7f" stroke-width="1.0000"/></g>
<text x="186" y="776" font-size="11" fill="#2d2d2d" font-family="Arial, Helvetica, sans-serif">AC0833_M</text>
<rect x="356" y="600" width="160" height="160" fill="#ffffff" stroke="#d0d0d0"/>
<g transform="translate(388.000 600.000) scale(6.400000) translate(-0.000000 -0.000000)"><line x1="7.5000" y1="1.5000" x2="7.5000" y2="11.0000" stroke="#7f7f7f" stroke-width="1.0000" stroke-linecap="round"/>
  <circle cx="7.5000" cy="17.5000" r="6.5000" fill="#f2f2f2" stroke="#7f7f7f" stroke-width="1.0000"/></g>
<text x="358" y="776" font-size="11" fill="#2d2d2d" font-family="Arial, Helvetica, sans-serif">AC0833_S</text>
<rect x="528" y="600" width="160" height="160" fill="#ffffff" stroke="#d0d0d0"/>
<g transform="translate(528.000 635.556) scale(3.555556) translate(-0.000000 -0.000000)"><line x1="27.5000" y1="12.5000" x2="45.0000" y2="12.5000" stroke="#7f7f7f" stroke-width="1.0000" stroke-linecap="round"/>
  <circle cx="16.5000" cy="12.5000" r="11.0000" fill="#f2f2f2" stroke="#7f7f7f" stroke-width="1.0000"/>
  <text x="16.5470" y="13.5894" fill="#7f7f7f" font-family="Arial, Helvetica, sans-serif" font-size="10.5000px" font-style="normal" font-weight="600" text-anchor="middle" dominant-baseline="middle" transform="translate(16.5470 13.5894) scale(1.0000 1) translate(-16.5470 -13.5894)">CO</text>
  <text x="22.0595" y="15.4794" fill="#7f7f7f" font-family="Arial, Helvetica, sans-serif" font-size="6.5976px" font-style="normal" font-weight="600" text-anchor="start" dominant-baseline="middle" transform="translate(22.0595 15.4794) scale(1.0000 1) translate(-22.0595 -15.4794)">2</text></g>
<text x="530" y="776" font-size="11" fill="#2d2d2d" font-family="Arial, Helvetica, sans-serif">AC0834_L</text>
<rect x="700" y="600" width="160" height="160" fill="#ffffff" stroke="#d0d0d0"/>
<g transform="translate(700.000 634.286) scale(4.571429) translate(-0.000000 -0.000000)"><line x1="22.0000" y1="10.0000" x2="35.0000" y2="10.0000" stroke="#7f7f7f" stroke-width="1.0000" stroke-linecap="round"/>
  <circle cx="14.0000" cy="10.0000" r="8.0000" fill="#f2f2f2" stroke="#7f7f7f" stroke-width="1.0000"/>
  <text x="14.0049" y="10.7500" fill="#7f7f7f" font-family="Arial, Helvetica, sans-serif" font-size="7.5000px" font-style="normal" font-weight="600" text-anchor="middle" dominant-baseline="middle" transform="translate(14.0049 10.7500) scale(1.0000 1) translate(-14.0049 -10.7500)">CO</text>
  <text x="17.9424" y="12.5500" fill="#7f7f7f" font-family="Arial, Helvetica, sans-serif" font-size="4.3671px" font-style="normal" font-weight="600" text-anchor="start" dominant-baseline="middle" transform="translate(17.9424 12.5500) scale(1.0000 1) translate(-17.9424 -12.5500)">2</text></g>
<text x="702" y="776" font-size="11" fill="#2d2d2d" font-family="Arial, Helvetica, sans-serif">AC0834_M</text>
<rect x="872" y="600" width="160" height="160" fill="#ffffff" stroke="#d0d0d0"/>
<g transform="translate(872.000 632.000) scale(6.400000) translate(-0.000000 -0.000000)"><line x1="24.0000" y1="7.5000" x2="15.0000" y2="7.5000" stroke="#7f7f7f" stroke-width="1.0000" stroke-linecap="round"/>
  <circle cx="8.0000" cy="7.5000" r="7.0000" fill="#f2f2f2" stroke="#7f7f7f" stroke-width="1.0000"/></g>
<text x="874" y="776" font-size="11" fill="#2d2d2d" font-family="Arial, Helvetica, sans-serif">AC0834_S</text>
<rect x="1044" y="600" width="160" height="160" fill="#ffffff" stroke="#d0d0d0"/>
<g transform="translate(1044.000 600.000) scale(6.400000) translate(-0.000000 -0.000000)"><line x1="20.0000" y1="21.0000" x2="20.0000" y2="16.0000" stroke="#7f7f7f" stroke-width="1.0000" stroke-linecap="round"/>
  <circle cx="20.0000" cy="12.5000" r="3.5000" fill="#f2f2f2" stroke="#7f7f7f" stroke-width="1.0000"/></g>
<text x="1046" y="776" font-size="11" fill="#2d2d2d" font-family="Arial, Helvetica, sans-serif">AC0835_L</text>
<rect x="1216" y="600" width="160" height="160" fill="#ffffff" stroke="#d0d0d0"/>
<g transform="translate(1216.000 600.000) scale(8.000000) translate(-0.000000 -0.000000)"><circle cx="10.0000" cy="9.5000" r="9.0000" fill="#f2f2f2" stroke="#7f7f7f" stroke-width="1.0000"/>
  <text x="10.0000" y="9.5000" fill="#7f7f7f" font-family="Arial, Helvetica, sans-serif" font-size="4.6800px" font-style="normal" font-weight="600" letter-spacing="0.01em" text-anchor="middle" dominant-baseline="middle">VOC</text></g>
<text x="1218" y="776" font-size="11" fill="#2d2d2d" font-family="Arial, Helvetica, sans-serif">AC0835_M</text>
<rect x="12" y="796" width="160" height="160" fill="#ffffff" stroke="#d0d0d0"/>
<g transform="translate(12.000 796.000) scale(10.666667) translate(-0.000000 -0.000000)"><circle cx="7.5000" cy="7.0000" r="6.5000" fill="#f9f9f9" stroke="#787878" stroke-width="1.0000"/>
  <text x="7.5000" y="7.0000" fill="#787878" font-family="Arial, Helvetica, sans-serif" font-size="4.0000px" font-style="normal" font-weight="600" letter-spacing="0.01em" text-anchor="middle" dominant-baseline="middle">VOC</text></g>
<text x="14" y="972" font-size="11" fill="#2d2d2d" font-family="Arial, Helvetica, sans-serif">AC0835_S</text>
<rect x="184" y="796" width="160" height="160" fill="#ffffff" stroke="#d0d0d0"/>
<g transform="translate(219.556 796.000) scale(3.555556) translate(-0.000000 -0.000000)"><line x1="4.0000" y1="13.0000" x2="0.0000" y2="13.0000" stroke="#7f7f7f" stroke-width="1.0000" stroke-linecap="round"/>
  <circle cx="16.5000" cy="13.0000" r="8.0000" fill="#f2f2f2" stroke="#7f7f7f" stroke-width="1.0000"/></g>
<text x="186" y="972" font-size="11" fill="#2d2d2d" font-family="Arial, Helvetica, sans-serif">AC0836_L</text>
<rect x="356" y="796" width="160" height="160" fill="#ffffff" stroke="#d0d0d0"/>
<g transform="translate(390.286 796.000) scale(4.571429) translate(-0.000000 -0.000000)"><line x1="10.5000" y1="30.0000" x2="10.5000" y2="18.0000" stroke="#7f7f7f" stroke-width="1.0000" stroke-linecap="round"/>
  <circle cx="10.5000" cy="10.5000" r="7.5000" fill="#f2f2f2" stroke="#7f7f7f" stroke-width="1.0000"/></g>
<text x="358" y="972" font-size="11" fill="#2d2d2d" font-family="Arial, Helvetica, sans-serif">AC0836_M</text>
<rect x="528" y="796" width="160" height="160" fill="#ffffff" stroke="#d0d0d0"/>
<g transform="translate(560.000 796.000) scale(6.400000) translate(-0.000000 -0.000000)"><line x1="7.5000" y1="14.5000" x2="7.5000" y2="23.5000" stroke="#7f7f7f" stroke-width="1.0000" stroke-linecap="round"/>
  <circle cx="7.5000" cy="8.0000" r="6.5000" fill="#f2f2f2" stroke="#7f7f7f" stroke-width="1.0000"/></g>
<text x="530" y="972" font-size="11" fill="#2d2d2d" font-family="Arial, Helvetica, sans-serif">AC0836_S</text>
<rect x="700" y="796" width="160" height="160" fill="#ffffff" stroke="#d0d0d0"/>
<g transform="translate(700.000 831.556) scale(3.555556) translate(-0.000000 -0.000000)"><line x1="0.0000" y1="12.5000" x2="18.5000" y2="12.5000" stroke="#7f7f7f" stroke-width="1.0000" stroke-linecap="round"/>
  <circle cx="29.0000" cy="12.5000" r="10.5000" fill="#f2f2f2" stroke="#7f7f7f" stroke-width="1.0000"/>
  <text x="29.0000" y="12.4100" fill="#7f7f7f" font-family="Arial, Helvetica, sans-serif" font-size="9.6285px" font-style="normal" font-weight="600" letter-spacing="0.01em" text-anchor="middle" dominant-baseline="middle">VOC</text></g>
<text x="702" y="972" font-size="11" fill="#2d2d2d" font-family="Arial, Helvetica, sans-serif">AC0837_L</text>
<rect x="872" y="796" width="160" height="160" fill="#ffffff" stroke="#d0d0d0"/>
<g transform="translate(872.000 830.286) scale(4.571429) translate(-0.000000 -0.000000)"><line x1="0.0000" y1="9.5000" x2="14.0000" y2="9.5000" stroke="#7f7f7f" stroke-width="1.0000" stroke-linecap="round"/>
  <circle cx="23.0000" cy="9.5000" r="9.0000" fill="#f2f2f2" stroke="#7f7f7f" stroke-width="1.0000"/>
  <text x="23.0000" y="10.3606" fill="#7f7f7f" font-family="Arial, Helvetica, sans-serif" font-size="8.5000px" font-style="normal" font-weight="600" text-anchor="middle" dominant-baseline="middle" transform="translate(23.0000 10.3606) scale(1.0000 1) translate(-23.0000 -10.3606)">CO</text>
  <text x="27.4625" y="11.8906" fill="#7f7f7f" font-family="Arial, Helvetica, sans-serif" font-size="5.1411px" font-style="normal" font-weight="600" text-anchor="start" dominant-baseline="middle" transform="translate(27.4625 11.8906) scale(1.0000 1) translate(-27.4625 -11.8906)">2</text></g>
<text x="874" y="972" font-size="11" fill="#2d2d2d" font-family="Arial, Helvetica, sans-serif">AC0837_M</text>
<rect x="1044" y="796" width="160" height="160" fill="#ffffff" stroke="#d0d0d0"/>
<g transform="translate(1044.000 828.000) scale(6.400000) translate(-0.000000 -0.000000)"><line x1="18.0000" y1="14.0000" x2="18.0000" y2="15.0000" stroke="#7f7f7f" stroke-width="1.0000" stroke-linecap="round"/>
  <circle cx="18.0000" cy="5.0000" r="4.5000" fill="#f2f2f2" stroke="#7f7f7f" stroke-width="1.0000"/></g>
<text x="1046" y="972" font-size="11" fill="#2d2d2d" font-family="Arial, Helvetica, sans-serif">AC0837_S</text>
<rect x="1216" y="796" width="160" height="160" fill="#ffffff" stroke="#d0d0d0"/>
<g transform="translate(1251.556 796.000) scale(3.555556) translate(-0.000000 -0.000000)"><line x1="12.5000" y1="22.5000" x2="11.5000" y2="22.5000" stroke="#7f7f7f" stroke-width="1.0000" stroke-linecap="round"/>
  <circle cx="25.0000" cy="22.5000" r="1.0000" fill="#f2f2f2" stroke="#7f7f7f" stroke-width="1.0000"/>
  <text x="25.0000" y="22.2930" fill="#7f7f7f" font-family="Arial, Helvetica, sans-serif" font-size="4.0000px" font-style="normal" font-weight="600" letter-spacing="0.01em" text-anchor="middle" dominant-baseline="middle">VOC</text></g>
<text x="1218" y="972" font-size="11" fill="#2d2d2d" font-family="Arial, Helvetica, sans-serif">AC0838_L_failed</text>
<rect x="12" y="992" width="160" height="160" fill="#ffffff" stroke="#d0d0d0"/>
<g transform="translate(46.286 992.000) scale(4.571429) translate(-0.000000 -0.000000)"><line x1="9.5000" y1="17.5000" x2="9.0000" y2="17.5000" stroke="#7f7f7f" stroke-width="1.0000" stroke-linecap="round"/>
  <circle cx="20.0000" cy="17.5000" r="1.0000" fill="#f2f2f2" stroke="#7f7f7f" stroke-width="1.0000"/>
  <text x="20.0000" y="17.3390" fill="#7f7f7f" font-family="Arial, Helvetica, sans-serif" font-size="4.0000px" font-style="normal" font-weight="600" letter-spacing="0.01em" text-anchor="middle" dominant-baseline="middle">VOC</text></g>
<text x="14" y="1168" font-size="11" fill="#2d2d2d" font-family="Arial, Helvetica, sans-serif">AC0838_M_failed</text>
<rect x="184" y="992" width="160" height="160" fill="#ffffff" stroke="#d0d0d0"/>
<g transform="translate(216.000 992.000) scale(6.400000) translate(-0.000000 -0.000000)"><line x1="7.0000" y1="12.5000" x2="6.5000" y2="12.5000" stroke="#7f7f7f" stroke-width="1.0000" stroke-linecap="round"/>
  <circle cx="15.0000" cy="12.5000" r="1.0000" fill="#f2f2f2" stroke="#7f7f7f" stroke-width="1.0000"/>
  <text x="15.0000" y="12.3850" fill="#7f7f7f" font-family="Arial, Helvetica, sans-serif" font-size="4.0000px" font-style="normal" font-weight="600" letter-spacing="0.01em" text-anchor="middle" dominant-baseline="middle">VOC</text></g>
<text x="186" y="1168" font-size="11" fill="#2d2d2d" font-family="Arial, Helvetica, sans-serif">AC0838_S_failed</text>
<rect x="356" y="992" width="160" height="160" fill="#ffffff" stroke="#d0d0d0"/>
<g transform="translate(356.000 1027.556) scale(3.555556) translate(-0.000000 -0.000000)"><line x1="28.0000" y1="12.5000" x2="45.0000" y2="12.5000" stroke="#7f7f7f" stroke-width="1.0000" stroke-linecap="round"/>
  <circle cx="17.0000" cy="12.5000" r="11.0000" fill="#f2f2f2" stroke="#7f7f7f" stroke-width="1.0000"/>
  <text x="17.0000" y="12.3850" fill="#7f7f7f" font-family="Arial, Helvetica, sans-serif" font-size="9.9000px" font-style="normal" font-weight="600" letter-spacing="0.01em" text-anchor="middle" dominant-baseline="middle">VOC</text></g>
<text x="358" y="1168" font-size="11" fill="#2d2d2d" font-family="Arial, Helvetica, sans-serif">AC0839_L</text>
<rect x="528" y="992" width="160" height="160" fill="#ffffff" stroke="#d0d0d0"/>
<g transform="translate(528.000 1026.286) scale(4.571429) translate(-0.000000 -0.000000)"><line x1="34.0000" y1="10.0000" x2="22.0000" y2="10.0000" stroke="#7f7f7f" stroke-width="1.0000" stroke-linecap="round"/>
  <circle cx="13.5000" cy="10.0000" r="8.5000" fill="#f2f2f2" stroke="#7f7f7f" stroke-width="1.0000"/>
  <text x="13.5000" y="10.8050" fill="#7f7f7f" font-family="Arial, Helvetica, sans-serif" font-size="8.0000px" font-style="normal" font-weight="600" text-anchor="middle" dominant-baseline="middle" transform="translate(13.5000 10.8050) scale(1.0000 1) translate(-13.5000 -10.8050)">CO</text>
  <text x="17.7000" y="12.2450" fill="#7f7f7f" font-family="Arial, Helvetica, sans-serif" font-size="4.7581px" font-style="normal" font-weight="600" text-anchor="start" dominant-baseline="middle" transform="translate(17.7000 12.2450) scale(1.0000 1) translate(-17.7000 -12.2450)">2</text></g>
<text x="530" y="1168" font-size="11" fill="#2d2d2d" font-family="Arial, Helvetica, sans-serif">AC0839_M</text>
<rect x="700" y="992" width="160" height="160" fill="#ffffff" stroke="#d0d0d0"/>
<g transform="translate(700.000 1024.000) scale(6.400000) translate(-0.000000 -0.000000)"><line x1="24.0000" y1="7.5000" x2="15.0000" y2="7.5000" stroke="#7f7f7f" stroke-width="1.0000" stroke-linecap="round"/>
  <circle cx="8.0000" cy="7.5000" r="7.0000" fill="#f2f2f2" stroke="#7f7f7f" stroke-width="1.0000"/>
  <text x="7.7575" y="8.1419" fill="#7f7f7f" font-family="Arial, Helvetica, sans-serif" font-size="6.5000px" font-style="normal" font-weight="600" text-anchor="middle" dominant-baseline="middle" transform="translate(7.7575 8.1419) scale(1.0000 1) translate(-7.7575 -8.1419)">CO</text>
  <text x="11.1700" y="9.3119" fill="#7f7f7f" font-family="Arial, Helvetica, sans-serif" font-size="4.0000px" font-style="normal" font-weight="600" text-anchor="start" dominant-baseline="middle" transform="translate(11.1700 9.3119) scale(1.0000 1) translate(-11.1700 -9.3119)">2</text></g>
<text x="702" y="1168" font-size="11" fill="#2d2d2d" font-family="Arial, Helvetica, sans-serif">AC0839_S</text>
<rect x="872" y="992" width="160" height="160" fill="#ffffff" stroke="#d0d0d0"/>
<g transform="translate(872.000 992.000) scale(5.333333) translate(-0.000000 -0.000000)"><circle cx="14.0000" cy="15.5000" r="13.5000" fill="#f2f2f2" stroke="#7f7f7f" stroke-width="1.0000"/>
  <path d="M829 0V1194H381V1493H1636V1194H1188V0H829Z" fill="#7f7f7f" transform="translate(8.5000,7.5000) scale(0.009469,-0.009469) translate(-381,-1493)"/></g>
<text x="874" y="1168" font-size="11" fill="#2d2d2d" font-family="Arial, Helvetica, sans-serif">AC0870_L</text>
<rect x="1044" y="992" width="160" height="160" fill="#ffffff" stroke="#d0d0d0"/>
<g transform="translate(1044.000 992.000) scale(8.000000) translate(-0.000000 -0.000000)"><circle cx="9.5000" cy="11.0000" r="8.5000" fill="#f2f2f2" stroke="#7f7f7f" stroke-width="1.0000"/>
  <path d="M829 0V1194H381V1493H1636V1194H1188V0H829Z" fill="#7f7f7f" transform="translate(5.5000,4.5000) scale(0.006667,-0.006667) translate(-381,-1493)"/></g>
<text x="1046" y="1168" font-size="11" fill="#2d2d2d" font-family="Arial, Helvetica, sans-serif">AC0870_M</text>
<rect x="1216" y="992" width="160" height="160" fill="#ffffff" stroke="#d0d0d0"/>
<g transform="translate(1216.000 992.000) scale(10.666667) translate(-0.000000 -0.000000)"><circle cx="5.0000" cy="7.5000" r="4.5000" fill="#f2f2f2" stroke="#7f7f7f" stroke-width="1.0000"/>
  <path d="M829 0V1194H381V1493H1636V1194H1188V0H829Z" fill="#7f7f7f" transform="translate(3.5000,3.0000) scale(0.005000,-0.005000) translate(-381,-1493)"/></g>
<text x="1218" y="1168" font-size="11" fill="#2d2d2d" font-family="Arial, Helvetica, sans-serif">AC0870_S</text>
<rect x="12" y="1188" width="160" height="160" fill="#ffffff" stroke="#d0d0d0"/>
<g transform="translate(47.556 1188.000) scale(3.555556) translate(-0.000000 -0.000000)"><rect x="11.5000" y="26.5000" width="2.0000" height="18.5000" fill="#7f7f7f"/>
  <circle cx="12.5000" cy="16.5000" r="11.0000" fill="#f2f2f2" stroke="#7f7f7f" stroke-width="1.0000"/>
  <path d="M829 0V1194H381V1493H1636V1194H1188V0H829Z" fill="#7f7f7f" transform="translate(5.5000,8.5000) scale(0.008333,-0.008333) translate(-381,-1493)"/></g>
<text x="14" y="1364" font-size="11" fill="#2d2d2d" font-family="Arial, Helvetica, sans-serif">AC0881_L</text>
<rect x="184" y="1188" width="160" height="160" fill="#ffffff" stroke="#d0d0d0"/>
<g transform="translate(218.286 1188.000) scale(4.571429) translate(-0.000000 -0.000000)"><rect x="9.0000" y="20.5000" width="2.0000" height="14.5000" fill="#7f7f7f"/>
  <circle cx="10.0000" cy="13.5000" r="8.5000" fill="#f2f2f2" stroke="#7f7f7f" stroke-width="1.0000"/>
  <path d="M829 0V1194H381V1493H1636V1194H1188V0H829Z" fill="#7f7f7f" transform="translate(5.5000,6.5000) scale(0.006667,-0.006667) translate(-381,-1493)"/></g>
<text x="186" y="1364" font-size="11" fill="#2d2d2d" font-family="Arial, Helvetica, sans-serif">AC0881_M</text>
<rect x="356" y="1188" width="160" height="160" fill="#ffffff" stroke="#d0d0d0"/>
<g transform="translate(388.000 1188.000) scale(6.400000) translate(-0.000000 -0.000000)"><rect x="7.0000" y="14.0000" width="1.0000" height="11.0000" fill="#7f7f7f"/>
  <circle cx="7.5000" cy="8.0000" r="7.0000" fill="#f2f2f2" stroke="#7f7f7f" stroke-width="1.0000"/>
  <path d="M829 0V1194H381V1493H1636V1194H1188V0H829Z" fill="#7f7f7f" transform="translate(4.5000,4.0000) scale(0.005000,-0.005000) translate(-381,-1493)"/></g>
<text x="358" y="1364" font-size="11" fill="#2d2d2d" font-family="Arial, Helvetica, sans-serif">AC0881_S</text>
<rect x="528" y="1188" width="160" height="160" fill="#ffffff" stroke="#d0d0d0"/>
<g transform="translate(528.000 1223.556) scale(3.555556) translate(-0.000000 -0.000000)"><line x1="0.0000" y1="12.5000" x2="17.5000" y2="12.5000" stroke="#7f7f7f" stroke-width="1.0000" stroke-linecap="round"/>
  <circle cx="28.5000" cy="12.5000" r="11.0000" fill="#f2f2f2" stroke="#7f7f7f" stroke-width="1.0000"/>
  <path d="M829 0V1194H381V1493H1636V1194H1188V0H829Z" fill="#7f7f7f" transform="translate(21.5000,6.0000) scale(0.008800,-0.008800) translate(-381,-1493)"/></g>
<text x="530" y="1364" font-size="11" fill="#2d2d2d" font-family="Arial, Helvetica, sans-serif">AC0882_L</text>
<rect x="700" y="1188" width="160" height="160" fill="#ffffff" stroke="#d0d0d0"/>
<g transform="translate(700.000 1222.286) scale(4.571429) translate(-0.000000 -0.000000)"><line x1="13.0000" y1="10.5000" x2="1.5000" y2="10.5000" stroke="#7f7f7f" stroke-width="1.0000" stroke-linecap="round"/>
  <circle cx="20.0000" cy="10.5000" r="7.0000" fill="#f2f2f2" stroke="#7f7f7f" stroke-width="1.0000"/></g>
<text x="702" y="1364" font-size="11" fill="#2d2d2d" font-family="Arial, Helvetica, sans-serif">AC0882_M</text>
<rect x="872" y="1188" width="160" height="160" fill="#ffffff" stroke="#d0d0d0"/>
<g transform="translate(872.000 1220.000) scale(6.400000) translate(-0.000000 -0.000000)"><line x1="0.0000" y1="7.5000" x2="10.0000" y2="7.5000" stroke="#7f7f7f" stroke-width="1.0000" stroke-linecap="round"/>
  <circle cx="17.0000" cy="7.5000" r="7.0000" fill="#f2f2f2" stroke="#7f7f7f" stroke-width="1.0000"/>
  <path d="M829 0V1194H381V1493H1636V1194H1188V0H829Z" fill="#7f7f7f" transform="translate(13.0000,2.5000) scale(0.005280,-0.005280) translate(-381,-1493)"/></g>
<text x="874" y="1364" font-size="11" fill="#2d2d2d" font-family="Arial, Helvetica, sans-serif">AC0882_S</text>
</svg>
