<?xml version="1.0" encoding="UTF-8" standalone="no"?>
<svg
   width="50px"
   height="75px"
   viewBox="0 0 50 75"
   version="1.1"
   id="svg2"
   sodipodi:docname="AC0223_L_erste_Korrektur.svg"
   inkscape:version="1.3 (0e150ed6c4, 2023-07-21)"
   xmlns:inkscape="http://www.inkscape.org/namespaces/inkscape"
   xmlns:sodipodi="http://sodipodi.sourceforge.net/DTD/sodipodi-0.dtd"
   xmlns="http://www.w3.org/2000/svg"
   xmlns:svg="http://www.w3.org/2000/svg">
  <sodipodi:namedview
     id="namedview2"
     pagecolor="#ffffff"
     bordercolor="#000000"
     borderopacity="0.25"
     inkscape:showpageshadow="2"
     inkscape:pageopacity="0.0"
     inkscape:pagecheckerboard="0"
     inkscape:deskcolor="#d1d1d1"
     inkscape:zoom="5.840702"
     inkscape:cx="5.9924303"
     inkscape:cy="29.362909"
     inkscape:window-width="1920"
     inkscape:window-height="1094"
     inkscape:window-x="-11"
     inkscape:window-y="-11"
     inkscape:window-maximized="1"
     inkscape:current-layer="g2" />
  <defs
     id="defs2">
    <linearGradient
       id="ac0223ValveGradient"
       x1="40.768627"
       y1="3.5709489"
       x2="1.7198302"
       y2="42.619746"
       gradientTransform="scale(1.1742619,0.85159875)"
       gradientUnits="userSpaceOnUse">
      <stop
         offset="0%"
         stop-color="#b2b2b3"
         id="stop1" />
      <stop
         offset="100%"
         stop-color="#d9d9d9"
         id="stop2" />
    </linearGradient>
  </defs>
  <line
     x1="25.5"
     y1="39"
     x2="25.5"
     y2="27.248953"
     stroke="#136fad"
     stroke-width="2"
     stroke-linecap="round"
     id="line2"
     style="fill:#7f7f7f;fill-opacity:1;stroke:#7f7f7f;stroke-opacity:1" />
  <circle
     cx="25.5000"
     cy="57.0000"
     r="17.0000"
     fill="#bdbdbd"
     stroke="#606060"
     stroke-width="2.0000"
     id="circle2" />
  <g
     transform="translate(0.55374433)"
     id="g2">
    <path
       d="m 36.492188,3.0410156 -22.986329,0.09375 9.91211,19.7363284 a 2.5,2.500001 0 0 0 -0.669922,0.851562 L 2.0195312,13.308594 2.1113281,36.294922 22.75,25.882812 a 2.5,2.500001 0 0 0 2.25,1.417969 2.5,2.500001 0 0 0 2.207031,-1.33789 l 20.574219,10.332031 0.0918,-22.986328 -20.660156,10.332031 a 2.5,2.500001 0 0 0 -0.632813,-0.777344 z"
       fill="url(#ac0223ValveGradient)"
       stroke="none"
       id="path2"
       style="fill:url(#ac0223ValveGradient)" />
    <path
       id="polygon2"
       style="fill:#d9d9d9;stroke:#808080"
       d="M 36.492188,2.6959677 24.946289,25.153 47.87305,12.963546 47.78125,35.949874 24.946289,25.153 2.1132824,35.949874 2.0195324,12.963546 24.946289,25.153 13.50586,2.7897177 Z"
       sodipodi:nodetypes="cccccccccc" />
    <ellipse
       cx="25"
       cy="25.153"
       rx="2.5"
       ry="2.500001"
       fill="#7f7f7f"
       stroke="#808080"
       stroke-width="1"
       id="ellipse2" />
  </g>
  <path
     style="fill:#7f7f7f;fill-opacity:1;stroke-width:1"
     d="M 24.142688,74.901675 C 21.524042,74.717399 18.520486,73.757445 16.268431,72.38502 8.2257368,67.483717 5.2719661,57.410095 9.4287568,49.058805 12.222786,43.445399 17.621122,39.732372 23.874596,39.122818 c 5.75562,-0.561027 11.597065,1.847089 15.352583,6.329049 4.568133,5.451761 5.510171,12.967194 2.423586,19.334974 -0.914757,1.88719 -2.010936,3.437693 -3.442428,4.869186 -3.723643,3.723642 -8.798592,5.616295 -14.065649,5.245648 z m 3.461566,-2.008976 c 5.844779,-0.766183 10.843093,-4.736234 12.932251,-10.271802 1.025899,-2.718289 1.260683,-6.023676 0.640379,-9.015498 -1.435546,-6.923858 -7.578905,-12.208235 -14.636166,-12.589695 -4.784314,-0.258602 -9.075404,1.354501 -12.37402,4.651631 -2.467826,2.466715 -4.004518,5.517711 -4.5341545,9.002247 -0.1724597,1.134632 -0.1706387,3.440952 0.00365,4.627625 0.7005145,4.769473 3.4209205,8.87694 7.5755075,11.43805 2.96102,1.825331 6.818009,2.626024 10.392549,2.157442 z"
     id="path3" />
</svg>
