<svg xmlns="http://www.w3.org/2000/svg" width="85" height="160" viewBox="0 0 85 160">
  <defs>
    <clipPath id="innerRect"><rect x="0.5" y="0.5" width="84" height="159"/></clipPath>
  </defs>
  <rect x="0.500" y="0.500" width="1.397" height="159.000" fill="#6f6f6f" stroke="none"/>
  <rect x="1.812" y="0.500" width="1.397" height="159.000" fill="#737373" stroke="none"/>
  <rect x="3.125" y="0.500" width="1.397" height="159.000" fill="#777777" stroke="none"/>
  <rect x="4.438" y="0.500" width="1.397" height="159.000" fill="#7c7c7c" stroke="none"/>
  <rect x="5.750" y="0.500" width="1.397" height="159.000" fill="#808080" stroke="none"/>
  <rect x="7.062" y="0.500" width="1.397" height="159.000" fill="#848484" stroke="none"/>
  <rect x="8.375" y="0.500" width="1.397" height="159.000" fill="#888888" stroke="none"/>
  <rect x="9.688" y="0.500" width="1.397" height="159.000" fill="#8c8c8c" stroke="none"/>
  <rect x="11.000" y="0.500" width="1.397" height="159.000" fill="#919191" stroke="none"/>
  <rect x="12.312" y="0.500" width="1.397" height="159.000" fill="#959595" stroke="none"/>
  <rect x="13.625" y="0.500" width="1.397" height="159.000" fill="#999999" stroke="none"/>
  <rect x="14.938" y="0.500" width="1.397" height="159.000" fill="#9d9d9d" stroke="none"/>
  <rect x="16.250" y="0.500" width="1.397" height="159.000" fill="#a1a1a1" stroke="none"/>
  <rect x="17.562" y="0.500" width="1.397" height="159.000" fill="#a6a6a6" stroke="none"/>
  <rect x="18.875" y="0.500" width="1.397" height="159.000" fill="#aaaaaa" stroke="none"/>
  <rect x="20.188" y="0.500" width="1.397" height="159.000" fill="#aeaeae" stroke="none"/>
  <rect x="21.500" y="0.500" width="1.397" height="159.000" fill="#b2b2b2" stroke="none"/>
  <rect x="22.812" y="0.500" width="1.397" height="159.000" fill="#b6b6b6" stroke="none"/>
  <rect x="24.125" y="0.500" width="1.397" height="159.000" fill="#bababa" stroke="none"/>
  <rect x="25.438" y="0.500" width="1.397" height="159.000" fill="#bfbfbf" stroke="none"/>
  <rect x="26.750" y="0.500" width="1.397" height="159.000" fill="#c3c3c3" stroke="none"/>
  <rect x="28.062" y="0.500" width="1.397" height="159.000" fill="#c7c7c7" stroke="none"/>
  <rect x="29.375" y="0.500" width="1.397" height="159.000" fill="#cbcbcb" stroke="none"/>
  <rect x="30.688" y="0.500" width="1.397" height="159.000" fill="#cfcfcf" stroke="none"/>
  <rect x="32.000" y="0.500" width="1.397" height="159.000" fill="#d4d4d4" stroke="none"/>
  <rect x="33.312" y="0.500" width="1.397" height="159.000" fill="#d8d8d8" stroke="none"/>
  <rect x="34.625" y="0.500" width="1.397" height="159.000" fill="#dcdcdc" stroke="none"/>
  <rect x="35.938" y="0.500" width="1.397" height="159.000" fill="#e0e0e0" stroke="none"/>
  <rect x="37.250" y="0.500" width="1.397" height="159.000" fill="#e4e4e4" stroke="none"/>
  <rect x="38.562" y="0.500" width="1.397" height="159.000" fill="#e9e9e9" stroke="none"/>
  <rect x="39.875" y="0.500" width="1.397" height="159.000" fill="#ededed" stroke="none"/>
  <rect x="41.188" y="0.500" width="1.397" height="159.000" fill="#f1f1f1" stroke="none"/>
  <rect x="42.500" y="0.500" width="1.397" height="159.000" fill="#f1f1f1" stroke="none"/>
  <rect x="43.812" y="0.500" width="1.397" height="159.000" fill="#ededed" stroke="none"/>
  <rect x="45.125" y="0.500" width="1.397" height="159.000" fill="#e9e9e9" stroke="none"/>
  <rect x="46.438" y="0.500" width="1.397" height="159.000" fill="#e4e4e4" stroke="none"/>
  <rect x="47.750" y="0.500" width="1.397" height="159.000" fill="#e0e0e0" stroke="none"/>
  <rect x="49.062" y="0.500" width="1.397" height="159.000" fill="#dcdcdc" stroke="none"/>
  <rect x="50.375" y="0.500" width="1.397" height="159.000" fill="#d8d8d8" stroke="none"/>
  <rect x="51.688" y="0.500" width="1.397" height="159.000" fill="#d4d4d4" stroke="none"/>
  <rect x="53.000" y="0.500" width="1.397" height="159.000" fill="#cfcfcf" stroke="none"/>
  <rect x="54.312" y="0.500" width="1.397" height="159.000" fill="#cbcbcb" stroke="none"/>
  <rect x="55.625" y="0.500" width="1.397" height="159.000" fill="#c7c7c7" stroke="none"/>
  <rect x="56.938" y="0.500" width="1.397" height="159.000" fill="#c3c3c3" stroke="none"/>
  <rect x="58.250" y="0.500" width="1.397" height="159.000" fill="#bfbfbf" stroke="none"/>
  <rect x="59.562" y="0.500" width="1.397" height="159.000" fill="#bababa" stroke="none"/>
  <rect x="60.875" y="0.500" width="1.397" height="159.000" fill="#b6b6b6" stroke="none"/>
  <rect x="62.188" y="0.500" width="1.397" height="159.000" fill="#b2b2b2" stroke="none"/>
  <rect x="63.500" y="0.500" width="1.397" height="159.000" fill="#aeaeae" stroke="none"/>
  <rect x="64.812" y="0.500" width="1.397" height="159.000" fill="#aaaaaa" stroke="none"/>
  <rect x="66.125" y="0.500" width="1.397" height="159.000" fill="#a6a6a6" stroke="none"/>
  <rect x="67.438" y="0.500" width="1.397" height="159.000" fill="#a1a1a1" stroke="none"/>
  <rect x="68.750" y="0.500" width="1.397" height="159.000" fill="#9d9d9d" stroke="none"/>
  <rect x="70.062" y="0.500" width="1.397" height="159.000" fill="#999999" stroke="none"/>
  <rect x="71.375" y="0.500" width="1.397" height="159.000" fill="#959595" stroke="none"/>
  <rect x="72.688" y="0.500" width="1.397" height="159.000" fill="#919191" stroke="none"/>
  <rect x="74.000" y="0.500" width="1.397" height="159.000" fill="#8c8c8c" stroke="none"/>
  <rect x="75.312" y="0.500" width="1.397" height="159.000" fill="#888888" stroke="none"/>
  <rect x="76.625" y="0.500" width="1.397" height="159.000" fill="#848484" stroke="none"/>
  <rect x="77.938" y="0.500" width="1.397" height="159.000" fill="#808080" stroke="none"/>
  <rect x="79.250" y="0.500" width="1.397" height="159.000" fill="#7c7c7c" stroke="none"/>
  <rect x="80.562" y="0.500" width="1.397" height="159.000" fill="#777777" stroke="none"/>
  <rect x="81.875" y="0.500" width="1.397" height="159.000" fill="#737373" stroke="none"/>
  <rect x="83.188" y="0.500" width="1.397" height="159.000" fill="#6f6f6f" stroke="none"/>
  <rect x="0.5" y="0.5" width="84" height="159" fill="none" stroke="#9a9a9a" stroke-width="1.80"/>
  <line x1="84" y1="0.5" x2="0.5" y2="159" stroke="#8f8f8f" stroke-width="1.00" clip-path="url(#innerRect)"/>
  <line x1="0.5" y1="0.5" x2="84" y2="159" stroke="#8f8f8f" stroke-width="1.00" clip-path="url(#innerRect)"/>
  <line x1="43.35" y1="14.40" x2="50.15" y2="14.40" stroke="#f1f1f1" stroke-width="0.80" stroke-linecap="round"/>
  <line x1="46.75" y1="11.00" x2="46.75" y2="17.80" stroke="#f1f1f1" stroke-width="0.80" stroke-linecap="round"/>
  <line x1="51.85" y1="14.40" x2="62.56" y2="14.40" stroke="#f1f1f1" stroke-width="2.20" stroke-linecap="round"/>
</svg>
