<?xml version="1.0" encoding="UTF-8" standalone="no"?>
<!-- Created with Inkscape (http://www.inkscape.org/) -->

<svg
   width="9.7906189mm"
   height="20.902082mm"
   viewBox="0 0 9.7906189 20.902083"
   version="1.1"
   id="svg1"
   xml:space="preserve"
   xmlns="http://www.w3.org/2000/svg"
   xmlns:svg="http://www.w3.org/2000/svg"><defs
     id="defs1"><linearGradient
       id="metalGrad"
       x1="1.1996347"
       y1="0.46889275"
       x2="62.780884"
       y2="0.46889275"
       gradientTransform="matrix(0.15562065,0,0,0.33575661,54.271204,50.927778)"
       gradientUnits="userSpaceOnUse"><stop
         offset="0"
         style="stop-color:#cccccc;stop-opacity:1;"
         id="stop1" /><stop
         offset="0.31380066"
         style="stop-color:#f6f6f6;stop-opacity:1;"
         id="stop2" /><stop
         offset="0.45125964"
         style="stop-color:#f6f6f6;stop-opacity:1;"
         id="stop4" /><stop
         offset="1"
         style="stop-color:#c9c9c9;stop-opacity:1;"
         id="stop3" /></linearGradient></defs><g
     id="layer1"
     transform="translate(-54.353723,-50.972323)"><rect
       x="54.520123"
       y="51.137688"
       width="9.4588547"
       height="20.571354"
       fill="url(#metalGrad)"
       stroke="#999999"
       stroke-width="0.330729"
       rx="0"
       ry="0"
       id="rect5"
       style="fill:url(#metalGrad);stroke:#b8b8b8;stroke-opacity:1" /><g
       id="g1"
       transform="translate(-9.6089892)"><rect
         x="-55.050919"
         y="68.707802"
         width="2.4642563"
         height="0.56400001"
         fill="#555555"
         rx="0.015018309"
         id="rect6-3-7-2-4-7"
         ry="0.015018309"
         style="fill:#696969;fill-opacity:1;stroke-width:0.66146"
         transform="rotate(-90)" /><rect
         x="67.757668"
         y="53.536789"
         width="2.4642563"
         height="0.56400001"
         fill="#555555"
         rx="0.015018309"
         id="rect6-3-7-2-4-7-4"
         ry="0.015018309"
         style="fill:#696969;fill-opacity:1;stroke-width:0.66146" /></g><rect
       x="58.148678"
       y="55.55843"
       width="2.4642563"
       height="0.56400001"
       fill="#555555"
       rx="0.015018309"
       id="rect6-3-7-2-4-7-4-4"
       ry="0.015018309"
       style="fill:#696969;fill-opacity:1;stroke-width:0.66146" /><path
       id="path1"
       style="fill:#858585;fill-opacity:1;fill-rule:evenodd;stroke:none;stroke-width:0.264583;stroke-linecap:round"
       d="m 54.353723,50.972323 v 0.325559 l 4.46123,10.12497 -4.46123,10.12444 v 0.32556 h 0.73226 c 1.38829,-3.154409 3.67667,-8.358089 4.163049,-9.46402 0.48638,1.105931 2.77476,6.309611 4.16305,9.46402 h 0.73226 v -0.32556 l -4.46123,-10.124959 4.46123,-10.124451 v -0.325559 h -0.73226 c -1.38829,3.154419 -3.67667,8.358089 -4.16305,9.46402 -0.486379,-1.105931 -2.774759,-6.309601 -4.163049,-9.46402 z" /></g></svg>
