<?xml version="1.0" encoding="UTF-8" standalone="no"?>
<!-- Created with Inkscape (http://www.inkscape.org/) -->

<svg
   width="10.054167mm"
   height="21.166666mm"
   viewBox="0 0 10.054167 21.166666"
   version="1.1"
   id="svg1"
   xml:space="preserve"
   xmlns="http://www.w3.org/2000/svg"
   xmlns:svg="http://www.w3.org/2000/svg"><defs
     id="defs1"><linearGradient
       id="metalGrad"
       x1="1.1996347"
       y1="0.46889275"
       x2="62.780884"
       y2="0.46889275"
       gradientTransform="matrix(0.15980969,0,0,0.34000668,-0.08473945,-0.045109)"
       gradientUnits="userSpaceOnUse"><stop
         offset="0"
         style="stop-color:#cccccc;stop-opacity:1;"
         id="stop1" /><stop
         offset="0.31380066"
         style="stop-color:#f6f6f6;stop-opacity:1;"
         id="stop2" /><stop
         offset="0.45125964"
         style="stop-color:#f6f6f6;stop-opacity:1;"
         id="stop4" /><stop
         offset="1"
         style="stop-color:#c9c9c9;stop-opacity:1;"
         id="stop3" /></linearGradient></defs><rect
     x="0.17087954"
     y="0.16745776"
     width="9.7134714"
     height="20.831751"
     fill="url(#metalGrad)"
     stroke="#999999"
     stroke-width="0.33073"
     rx="0"
     ry="0"
     id="rect5"
     style="fill:url(#metalGrad);stroke:#b8b8b8;stroke-opacity:1" /><path
     id="path1"
     style="fill:#858585;fill-opacity:1;fill-rule:evenodd;stroke:none;stroke-width:0.264583;stroke-linecap:round"
     d="m -2.050874e-7,0.00157252 v 0.329681 L 4.5813185,10.584387 -2.050874e-7,20.836985 v 0.329681 H 0.75197099 C 2.1776314,17.972326 4.5276107,12.702777 5.0270832,11.582848 5.5265557,12.702777 7.876535,17.972326 9.3021954,21.166666 H 10.054167 V 20.836985 L 5.4728479,10.583861 10.054167,0.33125352 v -0.329681 H 9.3021954 C 7.876535,3.1959218 5.5265557,8.4654609 5.0270832,9.58539 4.5276107,8.4654609 2.1776314,3.1959218 0.75197099,0.00157252 Z" /><rect
     x="3.7758076"
     y="2.0224776"
     width="2.5025513"
     height="0.57132834"
     fill="#555555"
     rx="0.015018308"
     id="rect6-3-9-2"
     ry="0.015018309"
     style="fill:#696969;fill-opacity:1;stroke-width:0.661459" /></svg>
